<svg
        xmlns="http://www.w3.org/2000/svg"
        xmlns:xlink="http://www.w3.org/1999/xlink"
        width="76px" height="58px">
    <defs>
        <linearGradient id="PSgrad_0" x1="0%" x2="100%" y1="0%" y2="0%">
            <stop offset="0%" stop-color="rgb(27,69,251)" stop-opacity="1" />
            <stop offset="100%" stop-color="rgb(47,148,255)" stop-opacity="1" />
        </linearGradient>

    </defs>
    <path fill-rule="evenodd"  fill="rgb(255, 255, 255)"
          d="M72.270,48.353 L31.080,48.353 C31.080,48.353 29.547,48.353 29.547,46.443 C29.547,45.308 29.547,43.040 29.547,41.905 C29.547,39.992 31.032,39.994 31.032,39.994 L73.177,39.994 L73.177,3.716 C73.177,3.226 72.761,2.812 72.270,2.812 L13.155,2.812 C12.664,2.812 12.248,3.226 12.248,3.716 C12.248,3.716 12.248,10.783 12.248,13.384 C12.248,14.690 12.397,14.871 11.673,14.871 C11.159,14.871 10.651,14.871 10.193,14.871 C9.330,14.871 9.425,14.690 9.425,13.408 C9.425,10.801 9.425,3.716 9.425,3.716 C9.425,1.667 11.099,-0.000 13.155,-0.000 L72.270,-0.000 C74.327,-0.000 76.000,1.667 76.000,3.716 L76.000,44.638 C76.000,46.687 74.327,48.353 72.270,48.353 ZM42.713,41.796 C41.784,41.796 41.032,42.546 41.032,43.471 C41.032,44.395 41.784,45.145 42.713,45.145 C43.640,45.145 44.393,44.395 44.393,43.471 C44.393,42.546 43.640,41.796 42.713,41.796 ZM26.200,20.588 L26.200,55.601 C26.200,56.924 25.119,58.000 23.792,58.000 L2.407,58.000 C1.080,58.000 0.000,56.924 0.000,55.601 L0.000,20.588 C0.000,19.265 1.080,18.190 2.407,18.190 L23.792,18.190 C25.119,18.190 26.200,19.265 26.200,20.588 ZM13.068,56.315 C13.756,56.315 14.314,55.759 14.314,55.074 C14.314,54.388 13.756,53.833 13.068,53.833 C12.380,53.833 11.822,54.388 11.822,55.074 C11.822,55.759 12.380,56.315 13.068,56.315 ZM15.737,20.636 L10.462,20.636 C10.210,20.636 10.006,20.839 10.006,21.090 C10.006,21.341 10.210,21.544 10.462,21.544 L15.737,21.544 C15.989,21.544 16.194,21.341 16.194,21.090 C16.194,20.839 15.989,20.636 15.737,20.636 ZM2.640,22.991 C2.326,22.991 2.069,23.253 2.069,23.573 L2.069,52.668 C2.069,52.987 2.326,53.249 2.640,53.249 L23.560,53.249 C23.874,53.249 24.131,52.987 24.131,52.668 L24.131,23.573 C24.131,23.253 23.874,22.991 23.560,22.991 L2.640,22.991 ZM30.074,54.329 L36.302,54.329 C36.601,54.329 36.846,54.086 36.846,53.788 L36.846,51.779 C36.846,51.482 37.090,51.238 37.389,51.238 L48.981,51.238 C49.279,51.238 49.524,51.482 49.524,51.779 L49.524,53.788 C49.524,54.086 49.768,54.329 50.067,54.329 L58.351,54.329 C58.650,54.329 58.895,54.573 58.894,54.870 L58.894,57.194 C58.894,57.491 58.650,57.735 58.351,57.735 L30.074,57.735 C29.775,57.735 29.531,57.491 29.531,57.194 L29.531,54.870 C29.531,54.572 29.775,54.329 30.074,54.329 Z"/>
    <path fill="url(#PSgrad_0)"
          d="M72.270,48.353 L31.080,48.353 C31.080,48.353 29.547,48.353 29.547,46.443 C29.547,45.308 29.547,43.040 29.547,41.905 C29.547,39.992 31.032,39.994 31.032,39.994 L73.177,39.994 L73.177,3.716 C73.177,3.226 72.761,2.812 72.270,2.812 L13.155,2.812 C12.664,2.812 12.248,3.226 12.248,3.716 C12.248,3.716 12.248,10.783 12.248,13.384 C12.248,14.690 12.397,14.871 11.673,14.871 C11.159,14.871 10.651,14.871 10.193,14.871 C9.330,14.871 9.425,14.690 9.425,13.408 C9.425,10.801 9.425,3.716 9.425,3.716 C9.425,1.667 11.099,-0.000 13.155,-0.000 L72.270,-0.000 C74.327,-0.000 76.000,1.667 76.000,3.716 L76.000,44.638 C76.000,46.687 74.327,48.353 72.270,48.353 ZM42.713,41.796 C41.784,41.796 41.032,42.546 41.032,43.471 C41.032,44.395 41.784,45.145 42.713,45.145 C43.640,45.145 44.393,44.395 44.393,43.471 C44.393,42.546 43.640,41.796 42.713,41.796 ZM26.200,20.588 L26.200,55.601 C26.200,56.924 25.119,58.000 23.792,58.000 L2.407,58.000 C1.080,58.000 0.000,56.924 0.000,55.601 L0.000,20.588 C0.000,19.265 1.080,18.190 2.407,18.190 L23.792,18.190 C25.119,18.190 26.200,19.265 26.200,20.588 ZM13.068,56.315 C13.756,56.315 14.314,55.759 14.314,55.074 C14.314,54.388 13.756,53.833 13.068,53.833 C12.380,53.833 11.822,54.388 11.822,55.074 C11.822,55.759 12.380,56.315 13.068,56.315 ZM15.737,20.636 L10.462,20.636 C10.210,20.636 10.006,20.839 10.006,21.090 C10.006,21.341 10.210,21.544 10.462,21.544 L15.737,21.544 C15.989,21.544 16.194,21.341 16.194,21.090 C16.194,20.839 15.989,20.636 15.737,20.636 ZM2.640,22.991 C2.326,22.991 2.069,23.253 2.069,23.573 L2.069,52.668 C2.069,52.987 2.326,53.249 2.640,53.249 L23.560,53.249 C23.874,53.249 24.131,52.987 24.131,52.668 L24.131,23.573 C24.131,23.253 23.874,22.991 23.560,22.991 L2.640,22.991 ZM30.074,54.329 L36.302,54.329 C36.601,54.329 36.846,54.086 36.846,53.788 L36.846,51.779 C36.846,51.482 37.090,51.238 37.389,51.238 L48.981,51.238 C49.279,51.238 49.524,51.482 49.524,51.779 L49.524,53.788 C49.524,54.086 49.768,54.329 50.067,54.329 L58.351,54.329 C58.650,54.329 58.895,54.573 58.894,54.870 L58.894,57.194 C58.894,57.491 58.650,57.735 58.351,57.735 L30.074,57.735 C29.775,57.735 29.531,57.491 29.531,57.194 L29.531,54.870 C29.531,54.572 29.775,54.329 30.074,54.329 Z"/>
</svg>
