<svg
        xmlns="http://www.w3.org/2000/svg"
        xmlns:xlink="http://www.w3.org/1999/xlink"
        width="50px" height="50px">
    <defs>
        <linearGradient id="PSgrad_0" x1="0%" x2="100%" y1="0%" y2="0%">
            <stop offset="0%" stop-color="rgb(27,69,251)" stop-opacity="1" />
            <stop offset="100%" stop-color="rgb(47,148,255)" stop-opacity="1" />
        </linearGradient>

    </defs>
    <path fill-rule="evenodd"  fill="none"
          d="M25.000,-0.000 C38.807,-0.000 50.000,11.193 50.000,25.000 C50.000,38.807 38.807,50.000 25.000,50.000 C11.193,50.000 0.000,38.807 0.000,25.000 C0.000,11.193 11.193,-0.000 25.000,-0.000 Z"/>
    <path fill="url(#PSgrad_0)"
          d="M25.000,-0.000 C38.807,-0.000 50.000,11.193 50.000,25.000 C50.000,38.807 38.807,50.000 25.000,50.000 C11.193,50.000 0.000,38.807 0.000,25.000 C0.000,11.193 11.193,-0.000 25.000,-0.000 Z"/>
    <path fill-rule="evenodd"  fill="rgb(255, 255, 255)"
          d="M35.348,31.284 C35.504,31.809 35.868,32.467 36.716,32.922 C36.716,32.922 35.114,33.316 33.751,31.903 C33.039,32.093 32.270,32.198 31.469,32.198 C30.382,32.198 29.352,32.003 28.447,31.664 C29.529,31.269 30.533,30.750 31.422,30.111 C33.668,28.504 34.906,26.348 34.906,24.041 C34.906,23.867 34.901,23.697 34.885,23.522 C36.752,24.346 38.000,25.828 38.000,27.516 C38.000,29.058 36.960,30.431 35.348,31.284 ZM23.206,32.078 C21.828,32.078 20.507,31.898 19.290,31.574 C16.950,34.000 14.199,33.326 14.199,33.326 C15.656,32.537 16.285,31.414 16.555,30.511 C13.794,29.048 12.000,26.692 12.000,24.041 C12.000,19.599 17.013,16.000 23.201,16.000 C29.389,16.000 34.407,19.604 34.407,24.041 C34.407,28.479 29.394,32.078 23.206,32.078 ZM18.048,22.334 C17.065,22.334 16.269,23.098 16.274,24.036 C16.274,24.975 17.065,25.738 18.048,25.738 C19.025,25.738 19.821,24.980 19.821,24.036 C19.821,23.098 19.030,22.334 18.048,22.334 ZM23.201,22.339 C22.223,22.339 21.428,23.098 21.428,24.041 C21.428,24.980 22.218,25.744 23.201,25.744 C24.184,25.744 24.979,24.980 24.974,24.041 C24.974,23.103 24.178,22.339 23.201,22.339 ZM28.359,22.339 C27.382,22.339 26.586,23.098 26.586,24.041 C26.586,24.980 27.376,25.744 28.359,25.744 C29.337,25.744 30.132,24.980 30.132,24.041 C30.132,23.103 29.342,22.339 28.359,22.339 Z"/>
</svg>
