<svg
        xmlns="http://www.w3.org/2000/svg"
        xmlns:xlink="http://www.w3.org/1999/xlink"
        width="1923px" height="366px">
    <defs>
        <linearGradient id="PSgrad_0" x1="0%" x2="0%" y1="100%" y2="0%">
            <stop offset="0%" stop-color="rgb(255,255,255)" stop-opacity="0" />
            <stop offset="100%" stop-color="rgb(255,255,255)" stop-opacity="0.05098" />
        </linearGradient>

    </defs>
    <path fill-rule="evenodd"  fill="none"
          d="M1.000,284.000 C1.000,284.000 272.500,115.082 520.000,150.000 C767.500,184.918 1003.000,225.571 1195.000,155.000 C1387.000,84.429 1654.000,-27.434 1921.000,9.000 L1921.000,365.000 L1.000,365.000 L1.000,284.000 Z"/>
    <path fill="url(#PSgrad_0)"
          d="M1.000,284.000 C1.000,284.000 272.500,115.082 520.000,150.000 C767.500,184.918 1003.000,225.571 1195.000,155.000 C1387.000,84.429 1654.000,-27.434 1921.000,9.000 L1921.000,365.000 L1.000,365.000 L1.000,284.000 Z"/>
    <path fill-rule="evenodd"  stroke="rgb(255, 255, 255)" stroke-width="2px" stroke-linecap="butt" stroke-linejoin="miter" opacity="0.051" fill="none"
          d="M1.000,284.000 C1.000,284.000 272.500,115.082 520.000,150.000 C767.500,184.918 1003.000,225.571 1195.000,155.000 C1387.000,84.429 1654.000,-27.434 1921.000,9.000 "/>
    <path fill-rule="evenodd"  fill="none"
          d="M1.000,92.364 C1.000,92.364 220.000,290.532 532.000,219.223 C844.000,147.914 1045.000,73.000 1375.000,201.418 C1705.000,329.836 1921.000,151.342 1921.000,151.342 L1921.000,365.000 L1.000,365.000 L1.000,92.364 Z"/>
    <path fill="url(#PSgrad_0)"
          d="M1.000,92.364 C1.000,92.364 220.000,290.532 532.000,219.223 C844.000,147.914 1045.000,73.000 1375.000,201.418 C1705.000,329.836 1921.000,151.342 1921.000,151.342 L1921.000,365.000 L1.000,365.000 L1.000,92.364 Z"/>
</svg>
